<svg width="25" height="24" viewBox="0 0 25 24" fill="none" xmlns="http://www.w3.org/2000/svg">
<path d="M12.3718 22.75C6.44183 22.75 1.62183 17.93 1.62183 12C1.62183 6.07 6.44183 1.25 12.3718 1.25C18.3018 1.25 23.1218 6.07 23.1218 12C23.1218 17.93 18.3018 22.75 12.3718 22.75ZM12.3718 2.75C7.27183 2.75 3.12183 6.9 3.12183 12C3.12183 17.1 7.27183 21.25 12.3718 21.25C17.4718 21.25 21.6218 17.1 21.6218 12C21.6218 6.9 17.4718 2.75 12.3718 2.75Z" fill="white"/>
<path d="M16.3718 12.75H8.37183C7.96183 12.75 7.62183 12.41 7.62183 12C7.62183 11.59 7.96183 11.25 8.37183 11.25H16.3718C16.7818 11.25 17.1218 11.59 17.1218 12C17.1218 12.41 16.7818 12.75 16.3718 12.75Z" fill="white"/>
<path d="M12.3718 16.75C11.9618 16.75 11.6218 16.41 11.6218 16V8C11.6218 7.59 11.9618 7.25 12.3718 7.25C12.7818 7.25 13.1218 7.59 13.1218 8V16C13.1218 16.41 12.7818 16.75 12.3718 16.75Z" fill="white"/>
</svg>
