<svg width="29" height="28" viewBox="0 0 29 28" fill="none" xmlns="http://www.w3.org/2000/svg">
<path d="M21.3647 0.591797H7.37895C3.51514 0.591797 0.371826 3.73603 0.371826 7.60099V20.3997C0.371826 24.2646 3.51514 27.4089 7.37895 27.4089H21.3647C25.2285 27.4089 28.3718 24.2646 28.3718 20.3997V7.60099C28.3718 3.73603 25.2285 0.591797 21.3647 0.591797ZM2.84372 7.60099C2.84372 5.09985 4.87856 3.06441 7.37895 3.06441H21.3647C23.8651 3.06441 25.8999 5.09985 25.8999 7.60099V20.3997C25.8999 22.9008 23.8651 24.9363 21.3647 24.9363H7.37895C4.87856 24.9363 2.84372 22.9008 2.84372 20.3997V7.60099Z" fill="#332F36"/>
<path d="M14.3701 20.519C17.9631 20.519 20.8879 17.5949 20.8879 13.9992C20.8879 10.4036 17.9647 7.47949 14.3701 7.47949C10.7755 7.47949 7.85229 10.4036 7.85229 13.9992C7.85229 17.5949 10.7755 20.519 14.3701 20.519ZM14.3701 9.9537C16.6013 9.9537 18.416 11.769 18.416 14.0008C18.416 16.2327 16.6013 18.0479 14.3701 18.0479C12.1389 18.0479 10.3242 16.2327 10.3242 14.0008C10.3242 11.769 12.1389 9.9537 14.3701 9.9537Z" fill="#332F36"/>
<path d="M21.4912 8.53283C22.4588 8.53283 23.2474 7.74559 23.2474 6.77618C23.2474 5.80677 22.4604 5.01953 21.4912 5.01953C20.5221 5.01953 19.7351 5.80677 19.7351 6.77618C19.7351 7.74559 20.5221 8.53283 21.4912 8.53283Z" fill="#332F36"/>
</svg>
