<svg width="91" height="60" viewBox="0 0 91 60" fill="none" xmlns="http://www.w3.org/2000/svg">
<path d="M84.215 19.2145C83.4231 19.2145 82.7685 19.5182 82.251 20.1257C81.7414 20.7332 81.4552 21.5369 81.3925 22.5369H86.9199C86.8807 21.5089 86.618 20.7005 86.1319 20.1117C85.6537 19.5135 85.0147 19.2145 84.215 19.2145ZM86.9904 27.4856H90.1775C89.9188 28.9529 89.2602 30.1118 88.2018 30.9623C87.1512 31.8034 85.834 32.224 84.2503 32.224C82.2746 32.224 80.7339 31.523 79.6285 30.1211C78.523 28.7099 77.9703 26.7473 77.9703 24.2332C77.9703 21.7192 78.5269 19.7332 79.6402 18.2752C80.7535 16.8172 82.2746 16.0883 84.2032 16.0883C86.1163 16.0883 87.6059 16.7752 88.6722 18.149C89.7463 19.5229 90.2833 21.4388 90.2833 23.8968V25.1444H81.3808V25.3547C81.4043 26.5043 81.6787 27.4155 82.204 28.0884C82.7371 28.752 83.4506 29.0837 84.3444 29.0837C85.0186 29.0837 85.5831 28.9482 86.0379 28.6772C86.4926 28.3968 86.8101 27.9996 86.9904 27.4856Z" fill="black"/>
<path d="M64.6693 20.9668C64.6693 19.4995 65.1633 18.3219 66.1511 17.4341C67.1468 16.5369 68.4522 16.0883 70.0673 16.0883C71.7138 16.0883 73.0035 16.4855 73.9365 17.2799C74.8773 18.0743 75.3948 19.2098 75.4888 20.6864H72.3253C72.2391 20.1818 71.9999 19.7892 71.6079 19.5089C71.2238 19.2191 70.7181 19.0743 70.0908 19.0743C69.4715 19.0743 68.9618 19.2285 68.562 19.5369C68.1621 19.836 67.9622 20.2285 67.9622 20.7145C67.9622 21.0883 68.1033 21.4014 68.3856 21.6537C68.6678 21.8967 69.1108 22.0977 69.7145 22.2566L72.1489 22.8874C73.4112 23.2145 74.3324 23.7145 74.9126 24.3874C75.5006 25.0603 75.7946 25.9716 75.7946 27.1211C75.7946 28.6538 75.2693 29.8875 74.2187 30.8221C73.1681 31.7567 71.7883 32.224 70.0791 32.224C68.3699 32.224 67.0175 31.8221 66.0218 31.0183C65.0261 30.2146 64.4694 29.0697 64.3518 27.5837H67.6917C67.9661 28.6865 68.7854 29.238 70.1496 29.238C70.8161 29.238 71.357 29.0884 71.7726 28.7893C72.1881 28.4809 72.3959 28.0791 72.3959 27.5837C72.3959 27.2005 72.2665 26.8921 72.0078 26.6585C71.749 26.4155 71.3335 26.2192 70.7612 26.0697L68.4091 25.4388C67.1468 25.1117 66.206 24.5837 65.5866 23.8547C64.9751 23.1164 64.6693 22.1538 64.6693 20.9668Z" fill="black"/>
<path d="M54.7789 31.8875V16.4247H58.0953V18.892H58.307C58.4795 18.107 58.8715 17.4574 59.483 16.9434C60.1024 16.4294 60.8198 16.1724 61.6352 16.1724C62.2232 16.1724 62.6701 16.2378 62.9758 16.3686V20.0836C62.6152 19.9154 62.0742 19.8313 61.3529 19.8313C60.4042 19.8313 59.6398 20.1444 59.0596 20.7706C58.4873 21.3967 58.2011 22.2472 58.2011 23.322V31.8875H54.7789Z" fill="black"/>
<path d="M51.3449 16.4247V31.8875H48.0284V29.4062H47.8168C47.1739 31.2847 45.9116 32.224 44.0299 32.224C42.6265 32.224 41.5171 31.7193 40.7018 30.7099C39.8942 29.6912 39.4904 28.2893 39.4904 26.5043V16.4247H42.9127V25.4529C42.9127 27.6024 43.7085 28.6772 45.3 28.6772C46.139 28.6772 46.7858 28.3828 47.2405 27.794C47.6952 27.2052 47.9226 26.3874 47.9226 25.3407V16.4247H51.3449Z" fill="black"/>
<path d="M16.8871 32.4062C14.4252 32.4062 12.4809 31.4576 11.0539 29.5604C9.63486 27.6538 8.92532 25.0557 8.92532 21.7659C8.92532 18.4761 9.63486 15.8827 11.0539 13.9854C12.4809 12.0882 14.4252 11.1396 16.8871 11.1396C18.8942 11.1396 20.5877 11.8546 21.9675 13.2845C23.3553 14.7051 24.1158 16.5182 24.249 18.7238H20.7915C20.619 17.5556 20.176 16.621 19.4626 15.92C18.757 15.2191 17.8985 14.8686 16.8871 14.8686C15.5542 14.8686 14.4997 15.4854 13.7235 16.7191C12.9474 17.9528 12.5593 19.635 12.5593 21.7659C12.5593 23.8968 12.9474 25.5837 13.7235 26.8267C14.4997 28.0604 15.5581 28.6772 16.8988 28.6772C17.9181 28.6772 18.7805 28.3454 19.4861 27.6819C20.1917 27.0183 20.6308 26.1304 20.8033 25.0183H24.2608C24.1118 27.2052 23.3553 28.9856 21.9911 30.3595C20.6347 31.724 18.9334 32.4062 16.8871 32.4062Z" fill="black"/>
<path d="M11.1127 42.3549C11.1127 35.4177 15.8304 29.794 21.65 29.794H77.5979C83.4174 29.794 88.1351 35.4177 88.1351 42.3549V47.4391C88.1351 54.3763 83.4174 60 77.5979 60H21.65C15.8304 60 11.1127 54.3763 11.1127 47.4391V42.3549Z" fill="#357EEB"/>
<path d="M68.1582 54.2569C67.2409 54.2569 66.4295 54.0233 65.7238 53.556C65.0261 53.0887 64.5047 52.4345 64.1597 51.5934H63.948V54.0186H60.6316V32.6539H64.0539V41.0231H64.2656C64.5948 40.1727 65.1045 39.5091 65.7944 39.0325C66.4843 38.5465 67.2723 38.3035 68.1582 38.3035C69.7968 38.3035 71.0826 39.0091 72.0156 40.4203C72.9486 41.8316 73.4151 43.7849 73.4151 46.2802C73.4151 48.7569 72.9447 50.7055 72.0039 52.1261C71.0709 53.5467 69.789 54.2569 68.1582 54.2569ZM69.1108 42.9437C68.5855 42.1306 67.8721 41.7241 66.9704 41.7241C66.0688 41.7241 65.3514 42.1353 64.8183 42.9577C64.293 43.7708 64.0264 44.883 64.0186 46.2942C64.0264 47.6961 64.293 48.8083 64.8183 49.6307C65.3514 50.4438 66.0688 50.8504 66.9704 50.8504C67.8799 50.8504 68.5934 50.4438 69.1108 49.6307C69.6361 48.8176 69.8988 47.7008 69.8988 46.2802C69.8988 44.869 69.6361 43.7568 69.1108 42.9437Z" fill="white"/>
<path d="M57.08 38.5558V54.0186H53.7636V51.5373H53.5519C52.909 53.4158 51.6467 54.3551 49.7651 54.3551C48.3617 54.3551 47.2523 53.8504 46.4369 52.841C45.6293 51.8223 45.2256 50.4204 45.2256 48.6354V38.5558H48.6478V47.584C48.6478 49.7335 49.4436 50.8083 51.0352 50.8083C51.8741 50.8083 52.5209 50.5139 52.9756 49.9251C53.4304 49.3363 53.6577 48.5186 53.6577 47.4718V38.5558H57.08Z" fill="white"/>
<path d="M41.5681 54.0186H38.0165V45.5652H30.3723V54.0186H26.8206V33.7894H30.3723V41.9484H38.0165V33.7894H41.5681V54.0186Z" fill="white"/>
<path fill-rule="evenodd" clip-rule="evenodd" d="M12.0933 11.1245L7.71385 10.6347L4.07569 10.2079L3.70505 10.1765L3.33438 10.145L3.07176 10.105L2.16445 9.96701C1.84901 9.88575 1.53355 9.80462 1.21811 9.7235L1.21371 9.72237L0.628174 9.57176C2.02813 7.97746 3.42812 6.38318 4.82812 4.7889C6.22988 3.19261 7.63165 1.59632 9.03337 0L13.7182 0.671096L13.8527 0.690374C16.1121 1.01402 18.3715 1.33765 20.6308 1.66136L16.3547 6.40109L12.0933 11.1245ZM6.61286 17.0271L13.4074 17.4931L14.4575 17.0735L19.6136 12.1443C19.3946 11.3858 19.0408 10.1477 18.6879 8.91265L18.6864 8.90754C18.3385 7.68992 17.9916 6.47593 17.7757 5.72811C16.7728 6.86869 15.91 7.80093 15.0472 8.7332C14.1847 9.66514 13.3221 10.5971 12.3195 11.7373C11.0681 11.5513 9.83388 11.4266 8.59967 11.3019C7.36577 11.1772 6.13185 11.0526 4.88067 10.8666C5.29138 12.327 6.19814 15.5521 6.61057 17.019L6.61286 17.0271Z" fill="black"/>
<path d="M4.59016 15.7377L4.08838 15.7378L3.08445 15.7377H2.58267L2.59354 19.0247L3.58661 20.5227L4.59016 19.0284L4.59016 15.7377Z" fill="#357EEB"/>
<path d="M4.07569 10.2079L3.70505 10.1765C3.57101 10.1665 3.43696 10.1565 3.33438 10.145L3.07176 10.105L3.08445 15.7377L4.08838 15.7378L4.07569 10.2079Z" fill="black"/>
<path fill-rule="evenodd" clip-rule="evenodd" d="M30.4232 26.2056L34.5629 23.3566C35.2319 22.8961 35.2319 21.745 34.5629 21.2846L30.4232 18.4356C29.7542 17.9751 28.9179 18.5507 28.9179 19.4716V25.1696C28.9179 26.0905 29.7542 26.6661 30.4232 26.2056ZM35.5664 25.4286C37.5735 24.0473 37.5735 20.5939 35.5664 19.2126L31.4268 16.3636C29.4197 14.9822 26.9108 16.7089 26.9108 19.4716V25.1696C26.9108 27.9323 29.4197 29.659 31.4268 28.2776L35.5664 25.4286Z" fill="#357EEB"/>
</svg>
