<svg width="29" height="24" viewBox="0 0 29 24" fill="none" xmlns="http://www.w3.org/2000/svg">
<path d="M1.10745 10.977C1.17175 10.9448 1.23608 10.9143 1.29878 10.8853C2.38869 10.3804 3.49306 9.90763 4.59583 9.43488C4.65531 9.43488 4.75496 9.36572 4.81122 9.34321C4.89642 9.30623 4.98163 9.27086 5.06683 9.23388C5.2308 9.16313 5.39478 9.09397 5.55714 9.02322C5.88508 8.88332 6.21138 8.74343 6.53932 8.60353C7.19359 8.32374 7.84785 8.04395 8.50212 7.76255C9.81065 7.20296 11.1208 6.64177 12.4294 6.08218C13.7379 5.5226 15.048 4.96139 16.3566 4.4018C17.6651 3.84221 18.9752 3.28103 20.2838 2.72144C21.5923 2.16185 22.9025 1.60064 24.211 1.04106C24.502 0.91563 24.817 0.729116 25.1289 0.674444C25.3909 0.627812 25.6465 0.537757 25.9101 0.487909C26.4101 0.393037 26.9615 0.354438 27.4405 0.561871C27.6061 0.634232 27.7588 0.735536 27.8858 0.862568C28.4935 1.46396 28.4082 2.45128 28.2796 3.2971C27.3842 9.19206 26.4889 15.0886 25.5918 20.9836C25.4697 21.7924 25.3025 22.68 24.6643 23.1914C24.1242 23.6239 23.3558 23.6722 22.6886 23.4889C22.0215 23.304 21.4332 22.9164 20.8561 22.5353C18.4624 20.9498 16.0672 19.3643 13.6736 17.7788C13.1045 17.4026 12.4712 16.9105 12.4776 16.2271C12.4808 15.8155 12.7267 15.4488 12.9775 15.1224C15.0577 12.4081 18.0589 10.5428 20.2918 7.95389C20.6069 7.58887 20.8545 6.9296 20.422 6.71895C20.1648 6.59352 19.869 6.76398 19.6343 6.92639C16.6829 8.9766 13.7331 11.0284 10.7816 13.0786C9.81872 13.7475 8.80919 14.4358 7.64855 14.5998C6.61008 14.7477 5.56518 14.4583 4.56047 14.1624C3.71812 13.9148 2.87735 13.6607 2.03983 13.3986C1.59454 13.2603 1.13478 13.1108 0.790769 12.7972C0.446756 12.4837 0.249055 11.9562 0.456428 11.5381C0.586638 11.276 0.839026 11.1104 1.10427 10.9753L1.10745 10.977Z" fill="#332F36"/>
</svg>
